<mxfile host="app.diagrams.net" agent="Mozilla/5.0 (Windows NT 10.0; Win64; x64) AppleWebKit/537.36 (KHTML, like Gecko) Chrome/139.0.0.0 Safari/537.36" version="28.1.2">
  <diagram name="Página-1" id="4DaBVcXO8mkfEGo4cGtp">
    <mxGraphModel dx="1113" dy="1881" grid="1" gridSize="10" guides="1" tooltips="1" connect="1" arrows="1" fold="1" page="1" pageScale="1" pageWidth="827" pageHeight="1169" math="0" shadow="0">
      <root>
        <mxCell id="0" />
        <mxCell id="1" parent="0" />
        <mxCell id="gZGF9ABbxXFU1Q8gl9OU-7" style="edgeStyle=orthogonalEdgeStyle;rounded=0;orthogonalLoop=1;jettySize=auto;html=1;exitX=0.5;exitY=1;exitDx=0;exitDy=0;entryX=0.5;entryY=0;entryDx=0;entryDy=0;" edge="1" parent="1" source="gZGF9ABbxXFU1Q8gl9OU-1" target="gZGF9ABbxXFU1Q8gl9OU-3">
          <mxGeometry relative="1" as="geometry" />
        </mxCell>
        <mxCell id="gZGF9ABbxXFU1Q8gl9OU-15" style="edgeStyle=orthogonalEdgeStyle;rounded=0;orthogonalLoop=1;jettySize=auto;html=1;" edge="1" parent="1" source="gZGF9ABbxXFU1Q8gl9OU-1">
          <mxGeometry relative="1" as="geometry">
            <mxPoint x="400" y="65" as="targetPoint" />
          </mxGeometry>
        </mxCell>
        <mxCell id="gZGF9ABbxXFU1Q8gl9OU-1" value="levantamento de Requisitos" style="whiteSpace=wrap;html=1;" vertex="1" parent="1">
          <mxGeometry x="150" y="40" width="140" height="50" as="geometry" />
        </mxCell>
        <mxCell id="gZGF9ABbxXFU1Q8gl9OU-6" style="edgeStyle=orthogonalEdgeStyle;rounded=0;orthogonalLoop=1;jettySize=auto;html=1;exitX=0.5;exitY=1;exitDx=0;exitDy=0;entryX=0.5;entryY=0;entryDx=0;entryDy=0;" edge="1" parent="1" source="gZGF9ABbxXFU1Q8gl9OU-3" target="gZGF9ABbxXFU1Q8gl9OU-5">
          <mxGeometry relative="1" as="geometry" />
        </mxCell>
        <mxCell id="gZGF9ABbxXFU1Q8gl9OU-19" style="edgeStyle=orthogonalEdgeStyle;rounded=0;orthogonalLoop=1;jettySize=auto;html=1;exitX=1;exitY=0.5;exitDx=0;exitDy=0;entryX=0;entryY=0.5;entryDx=0;entryDy=0;" edge="1" parent="1" source="gZGF9ABbxXFU1Q8gl9OU-3" target="gZGF9ABbxXFU1Q8gl9OU-18">
          <mxGeometry relative="1" as="geometry" />
        </mxCell>
        <mxCell id="gZGF9ABbxXFU1Q8gl9OU-3" value="Análise" style="whiteSpace=wrap;html=1;" vertex="1" parent="1">
          <mxGeometry x="160" y="120" width="120" height="50" as="geometry" />
        </mxCell>
        <mxCell id="gZGF9ABbxXFU1Q8gl9OU-9" style="edgeStyle=orthogonalEdgeStyle;rounded=0;orthogonalLoop=1;jettySize=auto;html=1;exitX=0.5;exitY=1;exitDx=0;exitDy=0;entryX=0.5;entryY=0;entryDx=0;entryDy=0;" edge="1" parent="1" source="gZGF9ABbxXFU1Q8gl9OU-5" target="gZGF9ABbxXFU1Q8gl9OU-8">
          <mxGeometry relative="1" as="geometry" />
        </mxCell>
        <mxCell id="gZGF9ABbxXFU1Q8gl9OU-20" style="edgeStyle=orthogonalEdgeStyle;rounded=0;orthogonalLoop=1;jettySize=auto;html=1;" edge="1" parent="1" source="gZGF9ABbxXFU1Q8gl9OU-5">
          <mxGeometry relative="1" as="geometry">
            <mxPoint x="400" y="250" as="targetPoint" />
          </mxGeometry>
        </mxCell>
        <mxCell id="gZGF9ABbxXFU1Q8gl9OU-5" value="Projeto" style="whiteSpace=wrap;html=1;" vertex="1" parent="1">
          <mxGeometry x="160" y="220" width="120" height="60" as="geometry" />
        </mxCell>
        <mxCell id="gZGF9ABbxXFU1Q8gl9OU-12" value="" style="edgeStyle=orthogonalEdgeStyle;rounded=0;orthogonalLoop=1;jettySize=auto;html=1;" edge="1" parent="1" source="gZGF9ABbxXFU1Q8gl9OU-8" target="gZGF9ABbxXFU1Q8gl9OU-11">
          <mxGeometry relative="1" as="geometry" />
        </mxCell>
        <mxCell id="gZGF9ABbxXFU1Q8gl9OU-23" style="edgeStyle=orthogonalEdgeStyle;rounded=0;orthogonalLoop=1;jettySize=auto;html=1;exitX=1;exitY=0.5;exitDx=0;exitDy=0;entryX=0;entryY=0.5;entryDx=0;entryDy=0;" edge="1" parent="1" source="gZGF9ABbxXFU1Q8gl9OU-8" target="gZGF9ABbxXFU1Q8gl9OU-22">
          <mxGeometry relative="1" as="geometry" />
        </mxCell>
        <mxCell id="gZGF9ABbxXFU1Q8gl9OU-8" value="Implementação" style="whiteSpace=wrap;html=1;" vertex="1" parent="1">
          <mxGeometry x="160" y="310" width="120" height="60" as="geometry" />
        </mxCell>
        <mxCell id="gZGF9ABbxXFU1Q8gl9OU-14" style="edgeStyle=orthogonalEdgeStyle;rounded=0;orthogonalLoop=1;jettySize=auto;html=1;exitX=0.5;exitY=1;exitDx=0;exitDy=0;entryX=0.5;entryY=0;entryDx=0;entryDy=0;" edge="1" parent="1" source="gZGF9ABbxXFU1Q8gl9OU-11" target="gZGF9ABbxXFU1Q8gl9OU-13">
          <mxGeometry relative="1" as="geometry" />
        </mxCell>
        <mxCell id="gZGF9ABbxXFU1Q8gl9OU-26" style="edgeStyle=orthogonalEdgeStyle;rounded=0;orthogonalLoop=1;jettySize=auto;html=1;exitX=1;exitY=0.5;exitDx=0;exitDy=0;entryX=0;entryY=0.5;entryDx=0;entryDy=0;" edge="1" parent="1" source="gZGF9ABbxXFU1Q8gl9OU-11" target="gZGF9ABbxXFU1Q8gl9OU-24">
          <mxGeometry relative="1" as="geometry" />
        </mxCell>
        <mxCell id="gZGF9ABbxXFU1Q8gl9OU-11" value="Teste" style="whiteSpace=wrap;html=1;" vertex="1" parent="1">
          <mxGeometry x="160" y="400" width="120" height="60" as="geometry" />
        </mxCell>
        <mxCell id="gZGF9ABbxXFU1Q8gl9OU-29" value="" style="edgeStyle=orthogonalEdgeStyle;rounded=0;orthogonalLoop=1;jettySize=auto;html=1;" edge="1" parent="1" source="gZGF9ABbxXFU1Q8gl9OU-13" target="gZGF9ABbxXFU1Q8gl9OU-28">
          <mxGeometry relative="1" as="geometry" />
        </mxCell>
        <mxCell id="gZGF9ABbxXFU1Q8gl9OU-13" value="Implantação e Manutenção" style="whiteSpace=wrap;html=1;" vertex="1" parent="1">
          <mxGeometry x="160" y="490" width="120" height="60" as="geometry" />
        </mxCell>
        <mxCell id="gZGF9ABbxXFU1Q8gl9OU-16" value="Uber" style="text;html=1;align=center;verticalAlign=middle;resizable=0;points=[];autosize=1;strokeColor=none;fillColor=none;" vertex="1" parent="1">
          <mxGeometry x="345" y="-10" width="50" height="30" as="geometry" />
        </mxCell>
        <mxCell id="gZGF9ABbxXFU1Q8gl9OU-17" value="Dados do cliente, nome, idade, o que faz, coleta dos documentos.&amp;nbsp;&amp;nbsp;" style="whiteSpace=wrap;html=1;" vertex="1" parent="1">
          <mxGeometry x="400" y="40" width="120" height="60" as="geometry" />
        </mxCell>
        <mxCell id="gZGF9ABbxXFU1Q8gl9OU-18" value="Analise dos documentos, verificação de autenticidade e confirmação de pessoa real." style="whiteSpace=wrap;html=1;" vertex="1" parent="1">
          <mxGeometry x="400" y="120" width="180" height="50" as="geometry" />
        </mxCell>
        <mxCell id="gZGF9ABbxXFU1Q8gl9OU-21" value="Pode de usar a linguagem de Python e outras linguagens para criar o aplicativo." style="whiteSpace=wrap;html=1;" vertex="1" parent="1">
          <mxGeometry x="400" y="220" width="140" height="60" as="geometry" />
        </mxCell>
        <mxCell id="gZGF9ABbxXFU1Q8gl9OU-22" value="Implementando o sistema para qualquer usuário que quiser usar, podendo baixa em lojas de apps." style="whiteSpace=wrap;html=1;" vertex="1" parent="1">
          <mxGeometry x="400" y="310" width="180" height="60" as="geometry" />
        </mxCell>
        <mxCell id="gZGF9ABbxXFU1Q8gl9OU-24" value="Teste com os primeiros usuários, e usuários de teste, obtendo informações do uso do app, realizando vários testes." style="whiteSpace=wrap;html=1;" vertex="1" parent="1">
          <mxGeometry x="400" y="400" width="190" height="60" as="geometry" />
        </mxCell>
        <mxCell id="gZGF9ABbxXFU1Q8gl9OU-28" value="Implantado nas lojas digitais, recebendo feedbacks de usuários e analisando bugs, será implementado versões com correções de erros e melhorias no app.&amp;nbsp;" style="whiteSpace=wrap;html=1;" vertex="1" parent="1">
          <mxGeometry x="400" y="490" width="220" height="60" as="geometry" />
        </mxCell>
      </root>
    </mxGraphModel>
  </diagram>
</mxfile>
